<?xml version="1.0" standalone="no"?>
<!DOCTYPE svg PUBLIC "-//W3C//DTD SVG 20010904//EN"
 "http://www.w3.org/TR/2001/REC-SVG-20010904/DTD/svg10.dtd">
<svg version="1.0" xmlns="http://www.w3.org/2000/svg"
 width="1280.000000pt" height="1217.000000pt" viewBox="0 0 1280.000000 1217.000000"
 preserveAspectRatio="xMidYMid meet">
<metadata>
Created by potrace 1.15, written by Peter Selinger 2001-2017
</metadata>
<g transform="translate(0.000000,1217.000000) scale(0.100000,-0.100000)"
fill="#9e9e9e" stroke="none">
<path d="M6312 11993 c-44 -93 -217 -442 -383 -778 -165 -335 -569 -1152 -896
-1815 -327 -663 -598 -1208 -601 -1211 -4 -4 -986 -152 -2182 -328 -2420 -358
-2240 -331 -2240 -340 0 -7 2820 -2761 3077 -3006 l94 -90 -15 -85 c-8 -47
-58 -341 -111 -655 -105 -618 -171 -1011 -320 -1890 -53 -314 -141 -830 -194
-1148 -78 -460 -102 -581 -117 -598 -19 -21 -19 -22 4 -15 16 6 22 3 22 -8 0
-9 2 -16 5 -16 2 0 397 206 877 459 1758 923 2291 1202 2648 1386 201 103 379
195 395 204 l30 17 1140 -599 c627 -330 1514 -796 1970 -1036 457 -240 831
-434 833 -430 2 4 -18 128 -43 276 -77 450 -104 606 -135 786 -16 94 -45 267
-65 382 -20 116 -49 289 -66 385 -16 96 -48 279 -69 405 -21 127 -55 325 -75
440 -35 206 -63 371 -165 970 -28 165 -69 401 -90 525 l-38 225 66 66 c37 36
754 735 1595 1553 1318 1284 1525 1489 1513 1501 -10 10 -487 85 -1533 240
-835 125 -1817 271 -2183 325 -421 63 -668 95 -676 90 -7 -7 -44 58 -122 218
-61 125 -260 529 -443 897 -182 369 -362 733 -399 810 -37 77 -207 421 -377
765 -170 344 -383 775 -473 958 -90 182 -166 332 -170 332 -4 0 -43 -75 -88
-167z"/>
</g>
</svg>
