<?xml version="1.0" encoding="iso-8859-1"?>
<!-- Generator: Adobe Illustrator 19.0.0, SVG Export Plug-In . SVG Version: 6.00 Build 0)  -->
<svg xmlns="http://www.w3.org/2000/svg" xmlns:xlink="http://www.w3.org/1999/xlink" version="1.1" id="Layer_1" x="0px" y="0px" viewBox="0 0 505 505" style="enable-background:new 0 0 505 505;" xml:space="preserve" width="512" height="512">
<g>
	<path d="M252.5,505c-67.445,0-130.854-26.265-178.544-73.956S0,319.945,0,252.5S26.265,121.646,73.956,73.956S185.055,0,252.5,0   s130.854,26.265,178.544,73.956S505,185.055,505,252.5s-26.265,130.854-73.956,178.544S319.945,505,252.5,505z M252.5,15   c-63.438,0-123.08,24.704-167.938,69.562S15,189.062,15,252.5s24.704,123.08,69.562,167.938S189.062,490,252.5,490   s123.08-24.704,167.938-69.562S490,315.938,490,252.5s-24.704-123.08-69.562-167.938S315.938,15,252.5,15z"/>
	<path d="M252.5,450.378c-109.11,0-197.878-88.768-197.878-197.878c0-59.457,26.38-115.221,72.377-152.995   c3.202-2.628,7.927-2.165,10.556,1.036c2.629,3.201,2.165,7.927-1.036,10.556C94.004,146.011,69.622,197.55,69.622,252.5   c0,100.839,82.039,182.878,182.878,182.878c100.84,0,182.879-82.039,182.879-182.878S353.34,69.622,252.5,69.622   c-30.448,0-60.589,7.631-87.166,22.068c-3.64,1.977-8.193,0.629-10.17-3.01c-1.977-3.64-0.629-8.193,3.01-10.17   c28.767-15.627,61.385-23.887,94.326-23.887c109.111,0,197.879,88.768,197.879,197.878S361.611,450.378,252.5,450.378z"/>
	<path d="M333.831,382.271h-18.092c-4.142,0-7.5-3.358-7.5-7.5s3.358-7.5,7.5-7.5h18.092c6.893,0,12.5-5.607,12.5-12.5   s-5.607-12.5-12.5-12.5H215.304c-2.516,0-4.865-1.262-6.253-3.359c-1.389-2.098-1.634-4.753-0.651-7.069l31.769-74.898   c0.824-1.941,2.426-3.446,4.416-4.146l59.482-20.929c6.501-2.288,9.93-9.438,7.643-15.94c-1.108-3.15-3.377-5.679-6.388-7.123   c-3.01-1.443-6.403-1.628-9.552-0.52l-25.065,8.819c-2.804,0.987-5.922,0.225-7.957-1.94c-2.034-2.166-2.597-5.328-1.438-8.063   l35.581-83.887c1.304-3.074,1.333-6.471,0.082-9.566c-1.252-3.096-3.634-5.518-6.708-6.822c-6.346-2.692-13.696,0.281-16.389,6.627   l-49.827,117.475c-0.824,1.941-2.426,3.446-4.416,4.146l-54.677,19.238c-6.502,2.288-9.93,9.438-7.643,15.94   c1.759,4.998,6.498,8.356,11.792,8.356c1.407,0,2.802-0.24,4.149-0.714l20.26-7.128c2.803-0.987,5.922-0.225,7.957,1.94   c2.034,2.166,2.597,5.328,1.438,8.063l-29.317,69.119c-1.642,3.871-1.237,8.275,1.084,11.782c2.321,3.506,6.218,5.599,10.423,5.599   h100.641c4.142,0,7.5,3.358,7.5,7.5s-3.358,7.5-7.5,7.5H185.096c-9.251,0-17.823-4.605-22.93-12.319   c-5.107-7.713-6-17.403-2.387-25.919l22.682-53.476l-4.231,1.488c-2.95,1.038-6.021,1.564-9.127,1.564   c-11.648,0-22.074-7.386-25.941-18.378c-5.033-14.304,2.51-30.036,16.813-35.068l51.554-18.14l48.535-114.428   c5.922-13.959,22.096-20.499,36.055-14.579c6.763,2.868,12.003,8.198,14.757,15.008c2.754,6.81,2.69,14.285-0.178,21.047   l-28.945,68.243l9.036-3.179c6.928-2.439,14.393-2.033,21.017,1.144c6.624,3.176,11.614,8.741,14.052,15.67   s2.032,14.393-1.144,21.017c-3.176,6.624-8.741,11.614-15.67,14.052l-56.359,19.83l-26.052,61.422h107.199   c15.164,0,27.5,12.336,27.5,27.5S348.995,382.271,333.831,382.271z"/>
</g>















</svg>
