<?xml version="1.0" encoding="utf-8"?>
<!-- Generator: Adobe Illustrator 21.0.2, SVG Export Plug-In . SVG Version: 6.00 Build 0)  -->
<svg version="1.1" id="Layer_1" xmlns="http://www.w3.org/2000/svg" xmlns:xlink="http://www.w3.org/1999/xlink" x="0px" y="0px"
	 viewBox="0 0 34 34" style="enable-background:new 0 0 34 34;" xml:space="preserve">
<style type="text/css">
	.st0{fill:#FFF;}
</style>
<path id="MAGNIFYING_GLASS_copy_3" class="st0" d="M31.2,26.9c1.1,1,1.1,2.8,0.1,3.8c-1,1.1-2.8,1.1-3.8,0.1l-0.1-0.1l-7.9-7.9
	C13.9,26.3,6.5,24.6,3,19S1.3,6.1,6.9,2.6s13-1.8,16.5,3.8c2.4,3.9,2.4,8.8,0,12.6L31.2,26.9z M21.8,12.7c0-4.7-3.8-8.6-8.6-8.6
	S4.6,8,4.6,12.7s3.8,8.6,8.6,8.6l0,0C17.9,21.3,21.8,17.5,21.8,12.7z"/>
</svg>
