<?xml version="1.0" standalone="no"?><!DOCTYPE svg PUBLIC "-//W3C//DTD SVG 1.1//EN" "http://www.w3.org/Graphics/SVG/1.1/DTD/svg11.dtd"><svg class="icon" height="512" viewBox="0 0 1024 1024" version="1.1" xmlns="http://www.w3.org/2000/svg"><path d="M0 0M529.134933 545.143467v99.601066h68.266667v-99.601066c0-16.258844 34.133333-37.000533 68.266667-37.000534v-85.333333c-68.266667 0-136.533333 59.460267-136.533334 122.333867zM699.8016 474.077867h68.266667v170.666666h-68.266667v-170.666666zM836.334933 371.677867h68.266667v273.066666h-68.266667v-273.066666zM938.734933 371.677867h68.266667v273.066666h-68.266667v-273.066666zM780.868267 395.1616a42.666667 42.666667 0 1 1-85.333334 0 42.666667 42.666667 0 0 1 85.333334 0zM400.452267 422.0928c-2.798933 13.7216-41.984 47.377067-41.984 47.377067v-97.792h-102.4v273.066666h102.4v-90.0096s38.4 21.742933 38.4 90.0096h85.333333c0-68.266667-16.657067-93.9008-44.407467-126.634666 27.682133-28.398933 46.148267-67.515733 46.148267-91.374934l-83.490133-4.642133zM151.04 476.296533c-4.369067-1.297067-9.250133-2.3552-14.301867-3.515733-6.0416-1.3312-16.145067-3.549867-17.783466-4.369067 0 0-0.750933-1.8432-1.9456-5.3248 6.280533-5.905067 44.373333-12.629333 101.546666 5.290667l25.4976-81.544533c-27.613867-8.567467-121.821867-33.450667-177.220266 7.2704-21.947733 16.0768-33.962667 40.0384-33.962667 67.549866 0 75.628089 62.088533 89.2928 85.572267 94.5152 3.242667 0.7168 6.417067 1.3312 9.250133 2.139023 25.873067 7.418311 30.993067 12.288 31.914667 14.791111 0 7.4752-2.2528 9.0112-3.140267 9.4208-9.0112 5.905067-41.1648 8.192-104.8576-20.013511l-34.577067 77.994666c46.660267 20.627911 87.1424 31.004444 120.968534 31.004445 25.361067 0 47.172267-5.814044 64.989866-17.442134 26.624-17.339733 41.949867-46.865067 41.949867-80.9984-0.136533-69.973333-68.232533-89.4976-93.9008-96.768z" /></svg>